<mxfile host="Electron" modified="2023-06-12T08:25:00.587Z" agent="Mozilla/5.0 (Macintosh; Intel Mac OS X 10_15_7) AppleWebKit/537.36 (KHTML, like Gecko) draw.io/21.3.7 Chrome/112.0.5615.204 Electron/24.5.0 Safari/537.36" etag="epY5bSc6TXfn5GGDK3Iv" version="21.3.7" type="device">
  <diagram name="第 1 页" id="9pDDaC1NVlLl4GopoKST">
    <mxGraphModel dx="708" dy="512" grid="0" gridSize="10" guides="1" tooltips="1" connect="1" arrows="1" fold="1" page="1" pageScale="1" pageWidth="827" pageHeight="1169" math="0" shadow="0">
      <root>
        <mxCell id="0" />
        <mxCell id="1" parent="0" />
        <mxCell id="hvv9G2LoM0QF9MSX6gtL-2" value="&lt;p style=&quot;line-height: 360%;&quot;&gt;&lt;font face=&quot;宋体-简&quot; style=&quot;font-size: 24px;&quot;&gt;在开发和&lt;font style=&quot;&quot; color=&quot;#ea6b66&quot;&gt;使用&lt;/font&gt;&lt;span style=&quot;border-color: var(--border-color); background-color: rgb(212, 225, 245);&quot;&gt;沥青石&lt;/span&gt;方面，&lt;span style=&quot;border-color: var(--border-color); background-color: rgb(212, 225, 245);&quot;&gt;委内瑞拉&lt;/span&gt;居世界第一位，它今年制定的生产规划，计划&lt;span style=&quot;border-color: var(--border-color); background-color: rgb(212, 225, 245);&quot;&gt;将乳化油的年产量&lt;/span&gt;&lt;font style=&quot;&quot; color=&quot;#ea6b66&quot;&gt;提高&lt;/font&gt;&lt;span style=&quot;border-color: var(--border-color); background-color: rgb(212, 225, 245);&quot;&gt;到两千万吨&lt;/span&gt;。&lt;/font&gt;&lt;/p&gt;" style="rounded=0;whiteSpace=wrap;html=1;strokeColor=none;" parent="1" vertex="1">
          <mxGeometry x="56" y="143" width="683" height="139" as="geometry" />
        </mxCell>
        <mxCell id="hvv9G2LoM0QF9MSX6gtL-3" value="&lt;div data-docx-has-block-data=&quot;false&quot; data-page-id=&quot;PQCrdB5ijo2UkExW5T2cX3BDnZg&quot;&gt;&lt;div class=&quot;old-record-id-VqLmdhP7Yo4feTx5H7pcLgmQnKh&quot; style=&quot;&quot;&gt;&lt;font face=&quot;楷体-简&quot; style=&quot;font-size: 18px;&quot;&gt;资源&lt;/font&gt;&lt;/div&gt;&lt;/div&gt;" style="text;html=1;strokeColor=none;fillColor=none;align=center;verticalAlign=middle;whiteSpace=wrap;rounded=0;fontFamily=宋体;" parent="1" vertex="1">
          <mxGeometry x="209" y="117" width="60" height="30" as="geometry" />
        </mxCell>
        <mxCell id="hvv9G2LoM0QF9MSX6gtL-4" value="&lt;div data-docx-has-block-data=&quot;false&quot; data-page-id=&quot;PQCrdB5ijo2UkExW5T2cX3BDnZg&quot;&gt;&lt;div class=&quot;old-record-id-VqLmdhP7Yo4feTx5H7pcLgmQnKh&quot; style=&quot;&quot;&gt;&lt;font face=&quot;楷体-简&quot; style=&quot;font-size: 18px;&quot;&gt;施动者&lt;/font&gt;&lt;/div&gt;&lt;/div&gt;" style="text;html=1;align=center;verticalAlign=middle;resizable=0;points=[];autosize=1;strokeColor=none;fillColor=none;" parent="1" vertex="1">
          <mxGeometry x="366" y="115" width="72" height="34" as="geometry" />
        </mxCell>
        <mxCell id="hvv9G2LoM0QF9MSX6gtL-5" value="&lt;font face=&quot;楷体-简&quot; style=&quot;font-size: 18px;&quot;&gt;实体&lt;/font&gt;" style="text;html=1;align=center;verticalAlign=middle;resizable=0;points=[];autosize=1;strokeColor=none;fillColor=none;" parent="1" vertex="1">
          <mxGeometry x="370.5" y="266" width="54" height="34" as="geometry" />
        </mxCell>
        <mxCell id="hvv9G2LoM0QF9MSX6gtL-6" value="&lt;font face=&quot;楷体-简&quot; style=&quot;font-size: 18px;&quot;&gt;终值&lt;/font&gt;" style="text;html=1;align=center;verticalAlign=middle;resizable=0;points=[];autosize=1;strokeColor=none;fillColor=none;" parent="1" vertex="1">
          <mxGeometry x="573" y="266" width="54" height="34" as="geometry" />
        </mxCell>
        <mxCell id="FFUoLlGhC2BITFuTYfUo-1" value="" style="endArrow=classic;html=1;rounded=0;entryX=0.5;entryY=1;entryDx=0;entryDy=0;dashed=1;" edge="1" parent="1" target="hvv9G2LoM0QF9MSX6gtL-3">
          <mxGeometry width="50" height="50" relative="1" as="geometry">
            <mxPoint x="239" y="170" as="sourcePoint" />
            <mxPoint x="285" y="120" as="targetPoint" />
          </mxGeometry>
        </mxCell>
        <mxCell id="FFUoLlGhC2BITFuTYfUo-4" value="" style="endArrow=classic;html=1;rounded=0;entryX=0.5;entryY=1;entryDx=0;entryDy=0;dashed=1;" edge="1" parent="1">
          <mxGeometry width="50" height="50" relative="1" as="geometry">
            <mxPoint x="401.86" y="170" as="sourcePoint" />
            <mxPoint x="401.86" y="147" as="targetPoint" />
          </mxGeometry>
        </mxCell>
        <mxCell id="FFUoLlGhC2BITFuTYfUo-6" value="" style="endArrow=classic;html=1;rounded=0;entryX=0.5;entryY=1;entryDx=0;entryDy=0;dashed=1;" edge="1" parent="1">
          <mxGeometry width="50" height="50" relative="1" as="geometry">
            <mxPoint x="399" y="251" as="sourcePoint" />
            <mxPoint x="399" y="274" as="targetPoint" />
          </mxGeometry>
        </mxCell>
        <mxCell id="FFUoLlGhC2BITFuTYfUo-7" value="" style="endArrow=classic;html=1;rounded=0;entryX=0.5;entryY=1;entryDx=0;entryDy=0;dashed=1;" edge="1" parent="1">
          <mxGeometry width="50" height="50" relative="1" as="geometry">
            <mxPoint x="601" y="251" as="sourcePoint" />
            <mxPoint x="601" y="274" as="targetPoint" />
          </mxGeometry>
        </mxCell>
        <mxCell id="FFUoLlGhC2BITFuTYfUo-8" value="&lt;font color=&quot;#ea6b66&quot; style=&quot;font-size: 18px;&quot; face=&quot;楷体-简&quot;&gt;使量变&lt;/font&gt;" style="text;html=1;align=center;verticalAlign=middle;resizable=0;points=[];autosize=1;strokeColor=none;fillColor=none;" vertex="1" parent="1">
          <mxGeometry x="482" y="300" width="72" height="34" as="geometry" />
        </mxCell>
        <mxCell id="FFUoLlGhC2BITFuTYfUo-9" value="&lt;font style=&quot;font-size: 18px;&quot; face=&quot;楷体-简&quot; color=&quot;#ea6b66&quot;&gt;使用资源&lt;/font&gt;" style="text;html=1;align=center;verticalAlign=middle;resizable=0;points=[];autosize=1;strokeColor=none;fillColor=none;" vertex="1" parent="1">
          <mxGeometry x="134" y="95" width="90" height="34" as="geometry" />
        </mxCell>
        <mxCell id="FFUoLlGhC2BITFuTYfUo-11" value="" style="endArrow=classic;html=1;rounded=0;exitX=0.183;exitY=0.245;exitDx=0;exitDy=0;exitPerimeter=0;" edge="1" parent="1">
          <mxGeometry width="50" height="50" relative="1" as="geometry">
            <mxPoint x="517" y="253" as="sourcePoint" />
            <mxPoint x="517" y="308" as="targetPoint" />
          </mxGeometry>
        </mxCell>
        <mxCell id="FFUoLlGhC2BITFuTYfUo-12" value="" style="endArrow=classic;html=1;rounded=0;exitX=0.183;exitY=0.245;exitDx=0;exitDy=0;exitPerimeter=0;" edge="1" parent="1">
          <mxGeometry width="50" height="50" relative="1" as="geometry">
            <mxPoint x="179.8" y="178" as="sourcePoint" />
            <mxPoint x="179.8" y="123" as="targetPoint" />
          </mxGeometry>
        </mxCell>
      </root>
    </mxGraphModel>
  </diagram>
</mxfile>
